<?xml version="1.0" encoding="UTF-8" standalone="no"?>
<svg
   xmlns:dc="http://purl.org/dc/elements/1.1/"
   xmlns:cc="http://creativecommons.org/ns#"
   xmlns:rdf="http://www.w3.org/1999/02/22-rdf-syntax-ns#"
   xmlns:svg="http://www.w3.org/2000/svg"
   xmlns="http://www.w3.org/2000/svg"
   xmlns:sodipodi="http://sodipodi.sourceforge.net/DTD/sodipodi-0.dtd"
   xmlns:inkscape="http://www.inkscape.org/namespaces/inkscape"
   version="1.1"
   width="24"
   height="24"
   viewBox="0 0 24 24"
   id="svg4"
   sodipodi:docname="email-outline-white.svg"
   inkscape:version="0.92.5 (2060ec1f9f, 2020-04-08)">
  <metadata
     id="metadata10">
    <rdf:RDF>
      <cc:Work
         rdf:about="">
        <dc:format>image/svg+xml</dc:format>
        <dc:type
           rdf:resource="http://purl.org/dc/dcmitype/StillImage" />
        <dc:title></dc:title>
      </cc:Work>
    </rdf:RDF>
  </metadata>
  <defs
     id="defs8" />
  <sodipodi:namedview
     pagecolor="#ffffff"
     bordercolor="#666666"
     borderopacity="1"
     objecttolerance="10"
     gridtolerance="10"
     guidetolerance="10"
     inkscape:pageopacity="0"
     inkscape:pageshadow="2"
     inkscape:window-width="762"
     inkscape:window-height="480"
     id="namedview6"
     showgrid="false"
     inkscape:zoom="9.8333333"
     inkscape:cx="14.491525"
     inkscape:cy="12"
     inkscape:window-x="72"
     inkscape:window-y="27"
     inkscape:window-maximized="0"
     inkscape:current-layer="svg4" />
  <path
     d="M22 6C22 4.9 21.1 4 20 4H4C2.9 4 2 4.9 2 6V18C2 19.1 2.9 20 4 20H20C21.1 20 22 19.1 22 18V6M20 6L12 11L4 6H20M20 18H4V8L12 13L20 8V18Z"
     id="path2" />
  <path
     style="fill:#ffffff;stroke-width:0.10169491"
     d="M 3.3393825,19.823918 C 2.8242968,19.640294 2.4006087,19.224008 2.2054778,18.709822 2.0681925,18.348064 2.0516776,17.466746 2.0765538,11.82979 L 2.1050847,5.3646645 2.3848592,4.9419683 C 2.5387351,4.7094854 2.8590741,4.415402 3.0967236,4.2884497 l 0.43209,-0.2308226 h 8.4915254 c 7.798334,0 8.517274,0.014104 8.806938,0.1727712 0.457944,0.2508446 0.930848,0.8315734 1.056169,1.2969802 0.07345,0.2727591 0.0997,2.4522841 0.08055,6.6877755 l -0.0284,6.283151 -0.278186,0.47322 c -0.206532,0.351329 -0.414681,0.541238 -0.808103,0.737288 l -0.529917,0.264068 -8.293591,-0.0045 c -6.7763066,-0.0037 -8.365458,-0.03008 -8.6864135,-0.1445 z M 20.054237,13.00678 c 0,-2.768644 -0.02285,-5.0338986 -0.05077,-5.0338986 -0.02792,0 -1.840459,1.118423 -4.027859,2.4853846 l -3.977091,2.485385 -0.777225,-0.486662 C 7.4017096,10.065348 4.5913107,8.3117651 4.3169492,8.1489391 L 3.9864407,7.9527913 v 5.0439437 5.043943 h 8.0338983 8.033898 z m -3.94048,-4.5162105 c 2.167264,-1.3550346 3.94048,-2.4834739 3.94048,-2.507643 0,-0.024169 -3.624406,-0.043943 -8.054237,-0.043943 -6.1389753,0 -8.0260094,0.028228 -7.9355309,0.1187063 0.2887317,0.2887318 7.8191559,4.9500212 7.9560669,4.9247602 0.08401,-0.0155 1.925957,-1.1368455 4.093221,-2.4918805 z"
     id="path31"
     inkscape:connector-curvature="0" />
</svg>
