<?xml version="1.0" encoding="UTF-8" standalone="no"?>
<svg
   xmlns:dc="http://purl.org/dc/elements/1.1/"
   xmlns:cc="http://creativecommons.org/ns#"
   xmlns:rdf="http://www.w3.org/1999/02/22-rdf-syntax-ns#"
   xmlns:svg="http://www.w3.org/2000/svg"
   xmlns="http://www.w3.org/2000/svg"
   xmlns:sodipodi="http://sodipodi.sourceforge.net/DTD/sodipodi-0.dtd"
   xmlns:inkscape="http://www.inkscape.org/namespaces/inkscape"
   viewBox="0 0 128 128"
   version="1.1"
   id="svg8"
   sodipodi:docname="github-original-white.svg"
   inkscape:version="0.92.5 (2060ec1f9f, 2020-04-08)">
  <metadata
     id="metadata14">
    <rdf:RDF>
      <cc:Work
         rdf:about="">
        <dc:format>image/svg+xml</dc:format>
        <dc:type
           rdf:resource="http://purl.org/dc/dcmitype/StillImage" />
        <dc:title></dc:title>
      </cc:Work>
    </rdf:RDF>
  </metadata>
  <defs
     id="defs12" />
  <sodipodi:namedview
     pagecolor="#ffffff"
     bordercolor="#666666"
     borderopacity="1"
     objecttolerance="10"
     gridtolerance="10"
     guidetolerance="10"
     inkscape:pageopacity="0"
     inkscape:pageshadow="2"
     inkscape:window-width="1286"
     inkscape:window-height="696"
     id="namedview10"
     showgrid="false"
     inkscape:zoom="4.5993819"
     inkscape:cx="77.288136"
     inkscape:cy="64"
     inkscape:window-x="72"
     inkscape:window-y="27"
     inkscape:window-maximized="0"
     inkscape:current-layer="svg8" />
  <g
     fill="#181616"
     id="g6">
    <path
       fill-rule="evenodd"
       clip-rule="evenodd"
       d="M64 5.103c-33.347 0-60.388 27.035-60.388 60.388 0 26.682 17.303 49.317 41.297 57.303 3.017.56 4.125-1.31 4.125-2.905 0-1.44-.056-6.197-.082-11.243-16.8 3.653-20.345-7.125-20.345-7.125-2.747-6.98-6.705-8.836-6.705-8.836-5.48-3.748.413-3.67.413-3.67 6.063.425 9.257 6.223 9.257 6.223 5.386 9.23 14.127 6.562 17.573 5.02.542-3.903 2.107-6.568 3.834-8.076-13.413-1.525-27.514-6.704-27.514-29.843 0-6.593 2.36-11.98 6.223-16.21-.628-1.52-2.695-7.662.584-15.98 0 0 5.07-1.623 16.61 6.19C53.7 35 58.867 34.327 64 34.304c5.13.023 10.3.694 15.127 2.033 11.526-7.813 16.59-6.19 16.59-6.19 3.287 8.317 1.22 14.46.593 15.98 3.872 4.23 6.215 9.617 6.215 16.21 0 23.194-14.127 28.3-27.574 29.796 2.167 1.874 4.097 5.55 4.097 11.183 0 8.08-.07 14.583-.07 16.572 0 1.607 1.088 3.49 4.148 2.897 23.98-7.994 41.263-30.622 41.263-57.294C124.388 32.14 97.35 5.104 64 5.104z"
       id="path2" />
    <path
       d="M26.484 91.806c-.133.3-.605.39-1.035.185-.44-.196-.685-.605-.543-.906.13-.31.603-.395 1.04-.188.44.197.69.61.537.91zm2.446 2.729c-.287.267-.85.143-1.232-.28-.396-.42-.47-.983-.177-1.254.298-.266.844-.14 1.24.28.394.426.472.984.17 1.255zM31.312 98.012c-.37.258-.976.017-1.35-.52-.37-.538-.37-1.183.01-1.44.373-.258.97-.025 1.35.507.368.545.368 1.19-.01 1.452zm3.261 3.361c-.33.365-1.036.267-1.552-.23-.527-.487-.674-1.18-.343-1.544.336-.366 1.045-.264 1.564.23.527.486.686 1.18.333 1.543zm4.5 1.951c-.147.473-.825.688-1.51.486-.683-.207-1.13-.76-.99-1.238.14-.477.823-.7 1.512-.485.683.206 1.13.756.988 1.237zm4.943.361c.017.498-.563.91-1.28.92-.723.017-1.308-.387-1.315-.877 0-.503.568-.91 1.29-.924.717-.013 1.306.387 1.306.88zm4.598-.782c.086.485-.413.984-1.126 1.117-.7.13-1.35-.172-1.44-.653-.086-.498.422-.997 1.122-1.126.714-.123 1.354.17 1.444.663zm0 0"
       id="path4" />
  </g>
  <path
     style="fill:#ffffff;stroke-width:0.54237288"
     d="M 41.005028,120.99366 C 11.912049,109.19295 -3.2008174,75.51258 7.270702,45.813694 11.344145,34.260765 18.439349,24.556164 28.025631,17.425741 43.964507,5.5701627 64.506799,2.330203 83.529313,8.6716206 109.2806,17.256168 126.68056,44.191243 123.79403,71.001231 c -1.57178,14.598574 -6.74102,25.772361 -16.72652,36.155939 -5.31833,5.53035 -10.669869,9.37337 -17.67109,12.68988 -10.05959,4.76527 -9.949689,4.8768 -10.191625,-10.34197 -0.176554,-11.106105 -0.217096,-11.459629 -1.627472,-14.192012 -1.536895,-2.977496 -1.491856,-3.435102 0.338105,-3.435102 2.018798,0 7.505681,-1.617231 10.992141,-3.239881 8.929296,-4.155823 13.709381,-12.9648 13.709381,-25.264325 0,-5.99453 -1.26384,-10.604008 -4.027429,-14.688815 -1.756349,-2.596021 -1.845358,-2.929276 -1.303826,-4.881356 1.08845,-3.923538 -0.210132,-13.268968 -1.935783,-13.931164 -1.522376,-0.58419 -6.32314,0.836826 -11.444827,3.387643 l -5.423729,2.701247 -3.525424,-0.805228 C 70.055826,34.036874 58.47034,34.042512 53.143495,35.166702 l -4.18532,0.883279 -2.309463,-1.4579 c -5.353469,-3.379496 -12.61462,-5.592257 -14.224068,-4.334638 -0.424835,0.331966 -1.034511,1.579845 -1.354834,2.773065 -0.720778,2.684943 -0.767573,10.034537 -0.07548,11.854883 0.380808,1.0016 0.311824,1.516168 -0.267742,1.997165 -1.644366,1.364703 -4.122677,6.59244 -4.925544,10.389917 -0.588526,2.783668 -0.730695,5.224151 -0.478189,8.208644 0.728452,8.609975 2.960255,14.252648 7.373738,18.643059 4.211591,4.18957 8.792031,6.213852 18.307203,8.090707 1.0312,0.2034 1.147636,0.395422 0.623046,1.027514 -0.354836,0.427553 -1.216455,2.186989 -1.914708,3.909858 -1.116796,2.75558 -1.51806,3.209055 -3.334911,3.768775 -5.028926,1.54928 -9.448883,0.29439 -12.641631,-3.589147 -4.34488,-5.284951 -6.804224,-7.413385 -9.408449,-8.142519 -1.935624,-0.541944 -2.894845,-0.570674 -3.891523,-0.116556 -1.738967,0.792326 -1.395958,1.496396 2.334631,4.792119 2.240223,1.979087 3.684842,3.897161 5.204613,6.910353 2.147053,4.25688 4.0078,6.15735 7.417041,7.57536 2.66257,1.10746 7.363886,1.53943 10.68267,0.98154 l 2.847458,-0.47865 v 5.8851 c 0,5.16194 -0.133294,6.01839 -1.084746,6.96984 -1.411042,1.41105 -1.653894,1.38564 -6.832259,-0.71481 z"
     id="path3719"
     inkscape:connector-curvature="0" />
  <path
     style="fill:#ffffff;stroke-width:0.30747905"
     d="m 46.307057,103.51278 c -0.27649,-0.44737 0.725549,-1.25775 1.395647,-1.1287 0.256941,0.0495 0.467166,0.36481 0.467166,0.70072 0,0.70639 -1.48052,1.04654 -1.862813,0.42798 z"
     id="path3721"
     inkscape:connector-curvature="0" />
  <path
     style="fill:#ffffff;stroke-width:0.30747905"
     d="m 41.886321,104.18196 c -0.371778,-0.2407 -0.376024,-0.36464 -0.02691,-0.7853 0.567994,-0.68439 1.69827,-0.48547 1.69827,0.29889 0,0.68186 -0.944786,0.95682 -1.671363,0.48641 z"
     id="path3723"
     inkscape:connector-curvature="0" />
  <path
     style="fill:#ffffff;stroke-width:0.30747905"
     d="M 37.652344 102.31836 C 37.471133 102.32025 37.279263 102.3543 37.087891 102.42773 C 36.539011 102.63835 36.826875 103.4618 37.511719 103.64062 C 38.322345 103.85229 38.638672 103.68841 38.638672 103.05859 C 38.638672 102.60456 38.195977 102.31268 37.652344 102.31836 z "
     id="path3725" />
  <path
     style="fill:#ffffff;stroke-width:0.21742052"
     d="m 33.256831,101.08443 c -0.781556,-0.61477 -0.805221,-1.514433 -0.03983,-1.514433 0.699385,0 1.459623,0.759003 1.372248,1.370023 -0.09168,0.64116 -0.627129,0.69919 -1.332413,0.14441 z"
     id="path3730"
     inkscape:connector-curvature="0" />
  <path
     style="fill:#ffffff;stroke-width:0.21742052"
     d="m 30.268449,97.599843 c -0.547351,-0.547352 -0.487294,-1.399864 0.09862,-1.399864 0.226257,0 0.608884,0.26454 0.850282,0.587866 0.363875,0.48737 0.391211,0.645334 0.159908,0.924037 -0.369215,0.444876 -0.572424,0.424343 -1.108806,-0.112039 z"
     id="path3732"
     inkscape:connector-curvature="0" />
  <path
     style="fill:#ffffff;stroke-width:0.21742052"
     d="m 27.822465,94.179769 c -0.496899,-0.549067 -0.470011,-1.132387 0.0522,-1.132387 0.54,0 1.143842,0.603842 1.056641,1.05664 -0.09772,0.507429 -0.682048,0.547346 -1.108839,0.07575 z"
     id="path3734"
     inkscape:connector-curvature="0" />
  <path
     style="fill:#ffffff;stroke-width:0.21742052"
     d="m 25.335502,91.816286 c -0.427767,-0.172608 -0.330072,-0.94311 0.119581,-0.94311 0.457832,0 0.913167,0.401129 0.913167,0.804456 0,0.280507 -0.511133,0.34913 -1.032748,0.138654 z"
     id="path3736"
     inkscape:connector-curvature="0" />
</svg>
