<?xml version="1.0" encoding="UTF-8" standalone="no"?>
<svg
   xmlns:dc="http://purl.org/dc/elements/1.1/"
   xmlns:cc="http://creativecommons.org/ns#"
   xmlns:rdf="http://www.w3.org/1999/02/22-rdf-syntax-ns#"
   xmlns:svg="http://www.w3.org/2000/svg"
   xmlns="http://www.w3.org/2000/svg"
   xmlns:sodipodi="http://sodipodi.sourceforge.net/DTD/sodipodi-0.dtd"
   xmlns:inkscape="http://www.inkscape.org/namespaces/inkscape"
   viewBox="0 0 128 128"
   version="1.1"
   id="svg4"
   sodipodi:docname="linkedin-plain-white.svg"
   inkscape:version="0.92.5 (2060ec1f9f, 2020-04-08)">
  <metadata
     id="metadata10">
    <rdf:RDF>
      <cc:Work
         rdf:about="">
        <dc:format>image/svg+xml</dc:format>
        <dc:type
           rdf:resource="http://purl.org/dc/dcmitype/StillImage" />
        <dc:title></dc:title>
      </cc:Work>
    </rdf:RDF>
  </metadata>
  <defs
     id="defs8" />
  <sodipodi:namedview
     pagecolor="#ffffff"
     bordercolor="#666666"
     borderopacity="1"
     objecttolerance="10"
     gridtolerance="10"
     guidetolerance="10"
     inkscape:pageopacity="0"
     inkscape:pageshadow="2"
     inkscape:window-width="1287"
     inkscape:window-height="632"
     id="namedview6"
     showgrid="false"
     inkscape:zoom="3.4138184"
     inkscape:cx="71.176715"
     inkscape:cy="64"
     inkscape:window-x="72"
     inkscape:window-y="27"
     inkscape:window-maximized="0"
     inkscape:current-layer="svg4" />
  <path
     d="M116 3H12a8.91 8.91 0 00-9 8.8v104.42a8.91 8.91 0 009 8.78h104a8.93 8.93 0 009-8.81V11.77A8.93 8.93 0 00116 3zM39.17 107H21.06V48.73h18.11zm-9-66.21a10.5 10.5 0 1110.49-10.5 10.5 10.5 0 01-10.54 10.48zM107 107H88.89V78.65c0-6.75-.12-15.44-9.41-15.44s-10.87 7.36-10.87 15V107H50.53V48.73h17.36v8h.24c2.42-4.58 8.32-9.41 17.13-9.41C103.6 47.28 107 59.35 107 75z"
     id="path2" />
  <path
     style="fill:#ffffff;stroke-width:0.29292712"
     d="m 9.3761726,124.45018 c -1.833998,-0.57584 -3.2197956,-1.53805 -4.3534382,-3.02273 -2.0247065,-2.65168 -1.8929911,1.34823 -1.8929911,-57.486035 0,-46.782542 0.053826,-53.387654 0.4458164,-54.7076308 0.591363,-1.991335 2.819671,-4.4394789 4.8942125,-5.3770557 L 10.013531,3.159036 h 53.752127 c 61.353462,0 55.582452,-0.2583753 58.458062,2.6172403 2.87536,2.875358 2.61724,-2.8754621 2.61724,58.3116017 0,52.020682 -0.0165,53.648462 -0.55825,55.053122 -0.70833,1.83657 -2.51278,3.80212 -4.40975,4.80346 l -1.47639,0.77933 -53.898594,0.0552 c -43.761879,0.0448 -54.128641,-0.017 -55.1218034,-0.32884 z M 39.15978,77.855453 V 48.709204 H 30.079039 20.998298 V 77.855453 107.0017 h 9.080741 9.080741 z m 29.585639,13.495844 c 0,-9.574853 0.122403,-16.530455 0.315307,-17.917383 0.792227,-5.6959 3.250431,-8.863717 7.593366,-9.78535 3.730798,-0.79173 7.855968,0.259328 9.467747,2.412301 2.446366,3.267799 2.542625,4.181066 2.542625,24.123296 V 107.0017 h 9.247109 9.247107 L 107.03481,87.009426 C 106.9025,65.653679 106.85659,64.928163 105.33579,60.158653 102.44152,51.081676 95.450595,46.813957 84.309045,47.322537 c -3.902818,0.178155 -6.449892,0.852664 -9.412156,2.492508 -1.817657,1.006216 -5.212304,4.075539 -6.228375,5.631483 -0.45597,0.698244 -0.478936,0.558545 -0.493585,-3.002503 l -0.01536,-3.734821 H 59.225288 50.291011 V 77.855453 107.0017 h 9.227204 9.227204 z M 34.864531,39.769792 c 5.878611,-2.912718 7.711781,-10.594644 3.773507,-15.81293 -5.18481,-6.86997 -15.973839,-5.045193 -18.573039,3.141309 -0.443821,1.397868 -0.547692,2.329851 -0.43343,3.888942 0.316121,4.313434 2.579035,7.440903 6.616123,9.143843 1.397526,0.589507 2.016471,0.674682 4.270738,0.587703 2.191446,-0.08455 2.924874,-0.244679 4.346101,-0.948867 z"
     id="path3715"
     inkscape:connector-curvature="0" />
</svg>
