<?xml version="1.0" encoding="UTF-8" standalone="no"?>
<svg
   xmlns:dc="http://purl.org/dc/elements/1.1/"
   xmlns:cc="http://creativecommons.org/ns#"
   xmlns:rdf="http://www.w3.org/1999/02/22-rdf-syntax-ns#"
   xmlns:svg="http://www.w3.org/2000/svg"
   xmlns="http://www.w3.org/2000/svg"
   xmlns:sodipodi="http://sodipodi.sourceforge.net/DTD/sodipodi-0.dtd"
   xmlns:inkscape="http://www.inkscape.org/namespaces/inkscape"
   version="1.1"
   width="24"
   height="24"
   viewBox="0 0 24 24"
   id="svg4"
   sodipodi:docname="phone-outline-white.svg"
   inkscape:version="0.92.5 (2060ec1f9f, 2020-04-08)">
  <metadata
     id="metadata10">
    <rdf:RDF>
      <cc:Work
         rdf:about="">
        <dc:format>image/svg+xml</dc:format>
        <dc:type
           rdf:resource="http://purl.org/dc/dcmitype/StillImage" />
        <dc:title></dc:title>
      </cc:Work>
    </rdf:RDF>
  </metadata>
  <defs
     id="defs8" />
  <sodipodi:namedview
     pagecolor="#ffffff"
     bordercolor="#666666"
     borderopacity="1"
     objecttolerance="10"
     gridtolerance="10"
     guidetolerance="10"
     inkscape:pageopacity="0"
     inkscape:pageshadow="2"
     inkscape:window-width="762"
     inkscape:window-height="480"
     id="namedview6"
     showgrid="false"
     inkscape:zoom="9.8333333"
     inkscape:cx="14.491525"
     inkscape:cy="12"
     inkscape:window-x="72"
     inkscape:window-y="27"
     inkscape:window-maximized="0"
     inkscape:current-layer="svg4" />
  <path
     d="M20,15.5C18.8,15.5 17.5,15.3 16.4,14.9C16.3,14.9 16.2,14.9 16.1,14.9C15.8,14.9 15.6,15 15.4,15.2L13.2,17.4C10.4,15.9 8,13.6 6.6,10.8L8.8,8.6C9.1,8.3 9.2,7.9 9,7.6C8.7,6.5 8.5,5.2 8.5,4C8.5,3.5 8,3 7.5,3H4C3.5,3 3,3.5 3,4C3,13.4 10.6,21 20,21C20.5,21 21,20.5 21,20V16.5C21,16 20.5,15.5 20,15.5M5,5H6.5C6.6,5.9 6.8,6.8 7,7.6L5.8,8.8C5.4,7.6 5.1,6.3 5,5M19,19C17.7,18.9 16.4,18.6 15.2,18.2L16.4,17C17.2,17.2 18.1,17.4 19,17.4V19Z"
     id="path2" />
  <path
     style="fill:#ffffff;stroke-width:0.10169491"
     d="M 18.528814,20.881084 C 10.197762,20.188754 3.4935707,13.268534 3.0996463,4.9547458 L 3.0409648,3.7162712 3.3533377,3.4038983 3.6657106,3.0915254 h 2.0484065 c 1.2104456,0 2.1284436,0.042835 2.2440583,0.1047096 0.3262055,0.1745799 0.4715421,0.6107771 0.5411355,1.624104 0.055396,0.8066087 0.2321406,1.8280466 0.5417823,3.1310601 0.045823,0.1928288 -0.164038,0.4544962 -1.2234113,1.5254237 l -1.2787221,1.2926692 0.3334369,0.623687 c 0.9697771,1.813951 2.9378702,3.891216 4.9330973,5.206742 0.692852,0.456823 1.311364,0.830587 1.374471,0.830587 0.06311,0 0.663177,-0.551772 1.333489,-1.226161 l 1.218749,-1.226161 0.508475,0.04308 c 0.279661,0.02369 0.94322,0.14012 1.474576,0.258724 0.531356,0.118605 1.253588,0.216247 1.604962,0.216981 0.351372,7.12e-4 0.79452,0.06638 0.98477,0.145867 0.593604,0.248024 0.664506,0.524327 0.664506,2.589561 0,1.005917 -0.04462,1.946304 -0.09916,2.089749 -0.127251,0.334696 -0.678221,0.670875 -1.070332,0.653074 -0.167797,-0.0076 -0.739831,-0.04998 -1.271186,-0.09414 z m 0.508474,-2.687864 v -0.864406 l -0.432203,-0.0017 c -0.237712,-9.15e-4 -0.831536,-0.08336 -1.319611,-0.183148 l -0.887406,-0.181439 -0.626708,0.632329 -0.626709,0.632329 0.649708,0.200306 c 0.82636,0.254766 2.291285,0.548667 3.064963,0.614908 0.156728,0.01342 0.177966,-0.08792 0.177966,-0.84917 z M 6.4552665,8.1992102 7.0363694,7.6119797 6.8392503,6.6483627 C 6.7308349,6.1183734 6.6145611,5.5131356 6.5808643,5.3033898 L 6.5195974,4.9220339 H 5.7614936 5.0033898 v 0.3978338 c 0,0.7586313 0.6297175,3.466573 0.8061333,3.466573 0.035552,0 0.3261367,-0.2642538 0.6457434,-0.5872305 z"
     id="path12"
     inkscape:connector-curvature="0" />
</svg>
